<?xml version="1.0" encoding="utf-8"?>
<!-- Generator: Adobe Illustrator 25.4.1, SVG Export Plug-In . SVG Version: 6.00 Build 0)  -->
<svg version="1.1" id="Layer_1" xmlns="http://www.w3.org/2000/svg" xmlns:xlink="http://www.w3.org/1999/xlink" x="0px" y="0px"
	 viewBox="0 0 24 24" style="enable-background:new 0 0 24 24;" xml:space="preserve">
<path d="M12,16c1.1,0,2,0.9,2,2s-0.9,2-2,2s-2-0.9-2-2S10.9,16,12,16 M12,10c1.1,0,2,0.9,2,2s-0.9,2-2,2s-2-0.9-2-2S10.9,10,12,10
	 M12,4c1.1,0,2,0.9,2,2s-0.9,2-2,2s-2-0.9-2-2S10.9,4,12,4z M24,0H0v24h24V0z"/>
</svg>
