<?xml version="1.0" encoding="utf-8"?>
<!-- Generator: Adobe Illustrator 25.4.1, SVG Export Plug-In . SVG Version: 6.00 Build 0)  -->
<svg version="1.1" id="Layer_1" xmlns="http://www.w3.org/2000/svg" xmlns:xlink="http://www.w3.org/1999/xlink" x="0px" y="0px"
	 viewBox="0 0 24 24" style="enable-background:new 0 0 24 24;" xml:space="preserve">
<path d="M16,7.5c-1-1-2.4-1.5-3.8-1.5c-2.6,0-4.8,1.8-5.6,4.1c-0.4,1.2-0.4,2.6,0,3.8h0c0.8,2.4,3,4.1,5.6,4.1c1.3,0,2.5-0.3,3.4-1
	v0c1.1-0.7,1.8-1.8,2-3h-5.4v-3.9h9.4c0.1,0.7,0.2,1.4,0.2,2c0,3-1.1,5.6-3,7.4l0,0c-1.7,1.5-3.9,2.4-6.6,2.4
	c-3.8,0-7.2-2.1-8.9-5.5c-1.4-2.8-1.4-6.2,0-9C5,4.1,8.4,2,12.2,2c2.5,0,4.9,0.9,6.7,2.6L16,7.5z M24,0H0v24h24V0z"/>
</svg>
