<?xml version="1.0" encoding="utf-8"?>
<!-- Generator: Adobe Illustrator 25.4.1, SVG Export Plug-In . SVG Version: 6.00 Build 0)  -->
<svg version="1.1" id="Layer_1" xmlns="http://www.w3.org/2000/svg" xmlns:xlink="http://www.w3.org/1999/xlink" x="0px" y="0px"
	 viewBox="0 0 24 24" style="enable-background:new 0 0 24 24;" xml:space="preserve">
<path d="M21.9,13.6l-1.1-3.3c0,0,0,0,0,0c0,0,0,0,0,0l0,0l0,0l-2.1-6.5c-0.1-0.3-0.4-0.6-0.8-0.6c-0.4,0-0.7,0.2-0.8,0.6l-2,6.2H8.8
	l-2-6.2C6.7,3.4,6.4,3.2,6,3.2c0,0,0,0,0,0c-0.4,0-0.7,0.2-0.8,0.6l-2.1,6.5v0l0,0c0,0,0,0,0,0c0,0,0,0,0,0l-1.1,3.3
	c-0.2,0.5,0,1,0.4,1.3l9.2,6.7c0,0,0,0,0,0c0,0,0,0,0,0c0,0,0,0,0,0l0,0c0,0,0,0,0,0c0,0,0,0,0,0l0,0c0,0,0,0,0,0c0,0,0,0,0,0l0,0
	c0,0,0,0,0,0c0,0,0,0,0,0s0,0,0,0c0,0,0,0,0,0c0,0,0,0,0,0c0,0,0,0,0,0h0c0,0,0,0,0,0c0,0,0,0,0,0c0,0,0,0,0,0c0,0,0,0,0,0
	c0,0,0,0,0,0c0,0,0,0,0,0c0,0,0,0,0,0c0,0,0,0,0,0c0,0,0,0,0,0c0,0,0,0,0,0c0,0,0,0,0,0h0l0,0c0,0,0,0,0.1,0l0,0l0,0l0,0l0,0l0,0
	c0,0,0,0,0.1,0l0,0h0c0,0,0,0,0,0s0,0,0,0c0,0,0,0,0,0c0,0,0,0,0,0c0,0,0,0,0,0c0,0,0,0,0,0c0,0,0,0,0,0c0,0,0,0,0,0c0,0,0,0,0,0
	c0,0,0,0,0,0c0,0,0,0,0,0h0c0,0,0,0,0,0s0,0,0,0c0,0,0,0,0,0c0,0,0,0,0,0c0,0,0,0,0,0c0,0,0,0,0,0l0,0c0,0,0,0,0,0c0,0,0,0,0,0
	c0,0,0,0,0,0c0,0,0,0,0,0c0,0,0,0,0,0l9.2-6.7C21.9,14.6,22.1,14.1,21.9,13.6z M18,4.4l1.8,5.6h-3.6L18,4.4z M19.5,10.9l-0.7,0.9
	l-5.4,7l2.6-7.9L19.5,10.9L19.5,10.9z M11.6,21.4L11.6,21.4C11.6,21.4,11.6,21.4,11.6,21.4C11.6,21.4,11.6,21.4,11.6,21.4z
	 M10.7,18.8l-6.2-7.9l0,0h3.6L10.7,18.8z M6,4.4L7.8,10H4.2L6,4.4z M3,14.1C3,14.1,2.9,14,3,13.9l0.8-2.4l5.8,7.5L3,14.1z
	 M11.7,21.6C11.7,21.6,11.7,21.6,11.7,21.6L11.7,21.6C11.7,21.6,11.7,21.6,11.7,21.6C11.7,21.6,11.7,21.6,11.7,21.6
	C11.7,21.6,11.7,21.6,11.7,21.6C11.7,21.6,11.7,21.6,11.7,21.6C11.7,21.6,11.7,21.6,11.7,21.6L11.7,21.6
	C11.7,21.6,11.7,21.6,11.7,21.6C11.7,21.6,11.7,21.6,11.7,21.6z M12,19.7L10.5,15l-1.3-4.1h5.7L12,19.7z M12.3,21.6
	C12.3,21.6,12.3,21.6,12.3,21.6L12.3,21.6C12.3,21.6,12.3,21.6,12.3,21.6C12.3,21.6,12.3,21.6,12.3,21.6
	C12.3,21.6,12.3,21.6,12.3,21.6L12.3,21.6C12.3,21.6,12.3,21.6,12.3,21.6C12.3,21.6,12.3,21.6,12.3,21.6
	C12.3,21.6,12.3,21.6,12.3,21.6C12.3,21.6,12.3,21.6,12.3,21.6z M21,14.1l-6.5,4.7l5.8-7.5l0.8,2.4C21.1,14,21,14.1,21,14.1z M24,24
	H0V0h24V24z"/>
</svg>
