<?xml version="1.0" encoding="utf-8"?>
<!-- Generator: Adobe Illustrator 25.4.1, SVG Export Plug-In . SVG Version: 6.00 Build 0)  -->
<svg version="1.1" id="Layer_1" xmlns="http://www.w3.org/2000/svg" xmlns:xlink="http://www.w3.org/1999/xlink" x="0px" y="0px"
	 viewBox="0 0 24 24" style="enable-background:new 0 0 24 24;" xml:space="preserve">
<path d="M3,4h2v6h4V4h2v14H9v-6H5v6H3V4 M15,4h4c1.1,0,2,0.9,2,2v10c0,1.1-0.9,2-2,2h-4c-1.1,0-2-0.9-2-2v-1h2v1h4v-4h-4v-2h4V6h-4
	v1h-2V6C13,4.9,13.9,4,15,4z M24,0H0v24h24V0z"/>
</svg>
