<?xml version="1.0" encoding="utf-8"?>
<!-- Generator: Adobe Illustrator 25.4.1, SVG Export Plug-In . SVG Version: 6.00 Build 0)  -->
<svg version="1.1" id="Layer_1" xmlns="http://www.w3.org/2000/svg" xmlns:xlink="http://www.w3.org/1999/xlink" x="0px" y="0px"
	 viewBox="0 0 24 24" style="enable-background:new 0 0 24 24;" xml:space="preserve">
<path d="M7,13v-2h14v2H7 M7,19v-2h14v2H7 M7,7V5h14v2H7 M3,8V5H2V4h2v4H3 M2,17v-1h3v4H2v-1h2v-0.5H3v-1h1V17H2 M4.2,10
	C4.7,10,5,10.3,5,10.8c0,0.2-0.1,0.4-0.2,0.5L3.1,13H5v1H2v-0.9L4,11H2v-1H4.2z M24,0H0v24h24V0z"/>
</svg>
