<?xml version="1.0" encoding="utf-8"?>
<!-- Generator: Adobe Illustrator 25.4.1, SVG Export Plug-In . SVG Version: 6.00 Build 0)  -->
<svg version="1.1" id="Layer_1" xmlns="http://www.w3.org/2000/svg" xmlns:xlink="http://www.w3.org/1999/xlink" x="0px" y="0px"
	 viewBox="0 0 24 24" style="enable-background:new 0 0 24 24;" xml:space="preserve">
<path d="M14,2l6,6v12c0,1.1-0.9,2-2,2H6c-1.1,0-2-0.9-2-2V4c0-1.1,0.9-2,2-2H14 M18,20V9h-5V4H6v16H18 M10.9,12.3
	c-0.2-0.8-0.8-3.2,0.6-3.3s0.5,3.1,0.5,3.1c0.4,1.5,2,2.6,2,2.6c0.5-0.2,3.3-0.5,2.9,1c-0.4,1.5-3.5,0.1-3.5,0.1
	c-1.9,0.1-3.4,0.7-3.4,0.7c-1.1,2.1-2.5,3-3,2.1c-0.7-1.1,2.1-2.5,2.1-2.5C10.7,13.7,10.9,12.4,10.9,12.3 M11.6,13.1
	c-0.4,1.3-1.2,2.7-1.2,2.7c0.9-0.3,2.7-0.7,2.7-0.7C11.9,14.1,11.6,13.2,11.6,13.1 M14.7,15.3c0,0,1.7,0.7,1.8,0.4
	C16.6,15.4,15.2,15.2,14.7,15.3 M9.1,16.8c-0.8,0.3-1.5,1.6-1.3,1.6C7.9,18.4,8.6,17.8,9.1,16.8 M11.6,11.3c0-0.1,0.4-1.7,0-1.7
	C11.3,9.5,11.6,11.2,11.6,11.3z M24,0H0v24h24V0z"/>
</svg>
