<?xml version="1.0" encoding="utf-8"?>
<!-- Generator: Adobe Illustrator 25.4.1, SVG Export Plug-In . SVG Version: 6.00 Build 0)  -->
<svg version="1.1" id="Layer_1" xmlns="http://www.w3.org/2000/svg" xmlns:xlink="http://www.w3.org/1999/xlink" x="0px" y="0px"
	 viewBox="0 0 24 24" style="enable-background:new 0 0 24 24;" xml:space="preserve">
<path d="M14.1,9.9c0.6,0.6,0.9,1.3,0.9,2.1s-0.3,1.5-0.9,2.1C13.5,14.7,12.8,15,12,15s-1.5-0.3-2.1-0.9C9.3,13.5,9,12.8,9,12
	s0.3-1.5,0.9-2.1C10.5,9.3,11.2,9,12,9S13.5,9.3,14.1,9.9z M24,0v24H0V0H24z M22,12c0-2.8-1.1-5.2-3-7.1C17.1,3,14.8,2,12,2
	S6.8,2.9,4.9,4.9C3,6.9,2,9.2,2,12s0.9,5,2.9,7s4.3,3,7.1,3h5v-2h-5c-2.2,0-4.2-0.9-5.7-2.4S4,14.2,4,12s0.7-4.2,2.3-5.7
	C7.9,4.8,9.8,4,12,4s4,0.7,5.6,2.3C19.2,7.9,20,9.8,20,12v1.4c0,0.4-0.1,0.8-0.4,1.1c-0.3,0.3-0.7,0.5-1.1,0.5c-0.3,0-0.7-0.2-1-0.5
	S17,13.8,17,13.4V12c0-1.3-0.5-2.5-1.5-3.5C14.6,7.5,13.4,7,12,7c-1.3,0-2.5,0.5-3.5,1.5C7.5,9.4,7,10.6,7,12c0,1.3,0.5,2.5,1.5,3.5
	c0.9,1,2.1,1.5,3.5,1.5s2.6-0.5,3.6-1.5c0.7,1,1.7,1.5,2.9,1.5c1,0,1.8-0.3,2.5-1c0.6-0.7,1-1.6,1-2.6V12z"/>
</svg>
