<?xml version="1.0" encoding="utf-8"?>
<!-- Generator: Adobe Illustrator 25.4.1, SVG Export Plug-In . SVG Version: 6.00 Build 0)  -->
<svg version="1.1" id="Layer_1" xmlns="http://www.w3.org/2000/svg" xmlns:xlink="http://www.w3.org/1999/xlink" x="0px" y="0px"
	 viewBox="0 0 24 24" style="enable-background:new 0 0 24 24;" xml:space="preserve">
<path d="M12,4c-4.4,0-8,3.6-8,8s3.6,8,8,8s8-3.6,8-8S16.4,4,12,4z M7,9.5C7,8.7,7.7,8,8.5,8S10,8.7,10,9.5S9.3,11,8.5,11
	S7,10.3,7,9.5z M12,17.2c-1.8,0-3.3-0.7-4.2-1.8L9.2,14c0.5,0.7,1.5,1.2,2.8,1.2s2.3-0.5,2.8-1.2l1.4,1.4
	C15.3,16.5,13.8,17.2,12,17.2z M15.5,11c-0.8,0-1.5-0.7-1.5-1.5S14.7,8,15.5,8S17,8.7,17,9.5S16.3,11,15.5,11z M0,0v24h24V0H0z
	 M12,22C6.5,22,2,17.5,2,12S6.5,2,12,2s10,4.5,10,10S17.5,22,12,22z"/>
</svg>
