<?xml version="1.0" encoding="utf-8"?>
<!-- Generator: Adobe Illustrator 25.4.1, SVG Export Plug-In . SVG Version: 6.00 Build 0)  -->
<svg version="1.1" id="Layer_1" xmlns="http://www.w3.org/2000/svg" xmlns:xlink="http://www.w3.org/1999/xlink" x="0px" y="0px"
	 viewBox="0 0 24 24" style="enable-background:new 0 0 24 24;" xml:space="preserve">
<path d="M17,14c0.6,0,1-0.4,1-1V3c0-0.6-0.4-1-1-1H3C2.4,2,2,2.4,2,3v15l4-4H17z M4,13.2V4h12v8H5.2L4,13.2z M21,6h-1v11.2L18.8,16
	H6v1c0,0.1,0,0.1,0,0.2C6.1,17.6,6.5,18,7,18h11l4,4V7C22,6.4,21.6,6,21,6z M24,24H0V0h24V24z"/>
</svg>
