<?xml version="1.0" encoding="utf-8"?>
<!-- Generator: Adobe Illustrator 25.4.1, SVG Export Plug-In . SVG Version: 6.00 Build 0)  -->
<svg version="1.1" id="Layer_1" xmlns="http://www.w3.org/2000/svg" xmlns:xlink="http://www.w3.org/1999/xlink" x="0px" y="0px"
	 viewBox="0 0 24 24" style="enable-background:new 0 0 24 24;" xml:space="preserve">
<path d="M20.2,18.8l-3.8-3.8c1-1.3,1.6-2.8,1.6-4.6C18,6.4,14.6,3,10.5,3S3,6.4,3,10.5S6.4,18,10.5,18c1.7,0,3.3-0.6,4.5-1.5
	l3.8,3.7c0.4,0.4,1,0.4,1.4,0C20.6,19.8,20.6,19.2,20.2,18.8z M5,10.5C5,7.5,7.5,5,10.5,5S16,7.5,16,10.5S13.5,16,10.5,16
	S5,13.5,5,10.5z M24,24H0V0h24V24z"/>
</svg>
