<?xml version="1.0" encoding="utf-8"?>
<!-- Generator: Adobe Illustrator 25.4.1, SVG Export Plug-In . SVG Version: 6.00 Build 0)  -->
<svg version="1.1" id="Layer_1" xmlns="http://www.w3.org/2000/svg" xmlns:xlink="http://www.w3.org/1999/xlink" x="0px" y="0px"
	 viewBox="0 0 24 24" style="enable-background:new 0 0 24 24;" xml:space="preserve">
<path d="M16.1,18H7v-7c0-0.6,0.1-1.2,0.3-1.8L16.1,18z M24,0v24H0V0H24z M8.3,5.1l1.5,1.5C10.4,6.2,11.2,6,12,6c2.8,0,5,2.2,5,5v2.8
	l2,2V11c0-3.1-2-5.8-5-6.7c0-0.1,0-0.2,0-0.3c0-1.1-0.9-2-2-2s-2,0.9-2,2c0,0.1,0,0.2,0,0.3C9.4,4.5,8.8,4.8,8.3,5.1z M14,21h-4
	c0,1.1,0.9,2,2,2S14,22.1,14,21z M22.1,21.5L2.4,1.7L1.1,3l4.7,4.7C5.3,8.7,5,9.9,5,11v6l-2,2v1h15.1l2.7,2.7L22.1,21.5z"/>
</svg>
