<?xml version="1.0" encoding="utf-8"?>
<!-- Generator: Adobe Illustrator 25.4.1, SVG Export Plug-In . SVG Version: 6.00 Build 0)  -->
<svg version="1.1" id="Layer_1" xmlns="http://www.w3.org/2000/svg" xmlns:xlink="http://www.w3.org/1999/xlink" x="0px" y="0px"
	 viewBox="0 0 24 24" style="enable-background:new 0 0 24 24;" xml:space="preserve">
<path d="M0,0v24h24V0H0z M21.6,19.5C21,20.5,20.1,21,19,21H5c-1.1,0-2-0.5-2.5-1.4c-0.6-1-0.6-2.1-0.1-3l7-13C9.9,2.6,10.9,2,12,2
	s2.1,0.6,2.6,1.6l7,13C22.1,17.5,22.1,18.6,21.6,19.5z M12.9,4.5C12.7,4.2,12.3,4,12,4s-0.7,0.2-0.9,0.5l-7,13C3.8,18.2,4.2,19,5,19
	h14c0.8,0,1.2-0.8,0.9-1.5L12.9,4.5z M12,17c-0.6,0-1-0.4-1-1s0.4-1,1-1s1,0.4,1,1S12.6,17,12,17z M12.5,13h-1L11,7h2L12.5,13z"/>
</svg>
