<?xml version="1.0" encoding="utf-8"?>
<!-- Generator: Adobe Illustrator 25.4.1, SVG Export Plug-In . SVG Version: 6.00 Build 0)  -->
<svg version="1.1" id="Layer_1" xmlns="http://www.w3.org/2000/svg" xmlns:xlink="http://www.w3.org/1999/xlink" x="0px" y="0px"
	 viewBox="0 0 24 24" style="enable-background:new 0 0 24 24;" xml:space="preserve">
<path d="M14,2H6C4.9,2,4,2.9,4,4v16c0,1.1,0.9,2,2,2h12c1.1,0,2-0.9,2-2V8L14,2 M18,20H6V4h7v5h5V20 M15.2,10.8
	c-0.5-0.5-1.1-0.8-2.4-0.8H9v9h1.6v-3.3h2.2c1.3,0,1.8-0.2,2.4-0.7c0.6-0.5,0.8-1.2,0.8-2.1C16,12,15.8,11.4,15.2,10.8 M13.9,14
	c-0.3,0.3-0.6,0.5-1.2,0.5h-2.1v-3.2h2c0.6,0,1,0.2,1.3,0.5c0.3,0.3,0.4,0.6,0.4,1.1S14.2,13.7,13.9,14z M24,24H0V0h24V24z"/>
</svg>
