<?xml version="1.0" encoding="utf-8"?>
<!-- Generator: Adobe Illustrator 25.4.1, SVG Export Plug-In . SVG Version: 6.00 Build 0)  -->
<svg version="1.1" id="Layer_1" xmlns="http://www.w3.org/2000/svg" xmlns:xlink="http://www.w3.org/1999/xlink" x="0px" y="0px"
	 viewBox="0 0 24 24" style="enable-background:new 0 0 24 24;" xml:space="preserve">
<path d="M0,0v24h24V0H0z M18,22H6c-1.7,0-3-1.3-3-3c0-0.6,0.2-1.2,0.5-1.6L9,7.8V6C8.4,6,8,5.6,8,5V4c0-1.1,0.9-2,2-2h4
	c1.1,0,2,0.9,2,2v1c0,0.6-0.4,1-1,1v1.8l5.5,9.6c0.3,0.5,0.5,1,0.5,1.6C21,20.7,19.7,22,18,22z M13,8.4V4h-2v4.4l-5.8,10
	C5.1,18.6,5,18.8,5,19c0,0.6,0.4,1,1,1h12c0.6,0,1-0.4,1-1c0-0.2-0.1-0.4-0.2-0.6L13,8.4z M12.5,12c0.3,0,0.5,0.2,0.5,0.5
	S12.8,13,12.5,13S12,12.8,12,12.5S12.2,12,12.5,12z M7.7,18l2.7-4.6L13,16l1.3-1.3l1.9,3.3H7.7z"/>
</svg>
