<?xml version="1.0" encoding="utf-8"?>
<!-- Generator: Adobe Illustrator 25.4.1, SVG Export Plug-In . SVG Version: 6.00 Build 0)  -->
<svg version="1.1" id="Layer_1" xmlns="http://www.w3.org/2000/svg" xmlns:xlink="http://www.w3.org/1999/xlink" x="0px" y="0px"
	 viewBox="0 0 24 24" style="enable-background:new 0 0 24 24;" xml:space="preserve">
<path d="M7,5h14v2H7V5 M7,13v-2h14v2H7 M4,4.5c0.8,0,1.5,0.7,1.5,1.5S4.8,7.5,4,7.5S2.5,6.8,2.5,6S3.2,4.5,4,4.5 M4,10.5
	c0.8,0,1.5,0.7,1.5,1.5S4.8,13.5,4,13.5S2.5,12.8,2.5,12S3.2,10.5,4,10.5 M7,19v-2h14v2H7 M4,16.5c0.8,0,1.5,0.7,1.5,1.5
	S4.8,19.5,4,19.5S2.5,18.8,2.5,18S3.2,16.5,4,16.5z M24,0H0v24h24V0z"/>
</svg>
