<?xml version="1.0" encoding="utf-8"?>
<!-- Generator: Adobe Illustrator 25.4.1, SVG Export Plug-In . SVG Version: 6.00 Build 0)  -->
<svg version="1.1" id="Layer_1" xmlns="http://www.w3.org/2000/svg" xmlns:xlink="http://www.w3.org/1999/xlink" x="0px" y="0px"
	 viewBox="0 0 24 24" style="enable-background:new 0 0 24 24;" xml:space="preserve">
<path d="M12,2c5.5,0,10,4.5,10,10s-4.5,10-10,10S2,17.5,2,12S6.5,2,12,2 M12,4c-4.4,0-8,3.6-8,8c0,1.9,0.6,3.6,1.7,4.9L16.9,5.7
	C15.6,4.6,13.9,4,12,4 M12,20c4.4,0,8-3.6,8-8c0-1.9-0.6-3.6-1.7-4.9L7.1,18.3C8.4,19.4,10.1,20,12,20z M24,0H0v24h24V0z"/>
</svg>
