<?xml version="1.0" encoding="utf-8"?>
<!-- Generator: Adobe Illustrator 25.4.1, SVG Export Plug-In . SVG Version: 6.00 Build 0)  -->
<svg version="1.1" id="Layer_1" xmlns="http://www.w3.org/2000/svg" xmlns:xlink="http://www.w3.org/1999/xlink" x="0px" y="0px"
	 viewBox="0 0 24 24" style="enable-background:new 0 0 24 24;" xml:space="preserve">
<path d="M15,9H9V7c0-1.7,1.3-3,3-3s3,1.3,3,3V9z M6,20h12v-9H6V20z M24,0v24H0V0H24z M20,11c0-1.1-0.9-2-2-2h-1V7c0-2.8-2.2-5-5-5
	S7,4.2,7,7v2H6c-1.1,0-2,0.9-2,2v9c0,1.1,0.9,2,2,2h12c1.1,0,2-0.9,2-2V11z"/>
</svg>
