<?xml version="1.0" encoding="utf-8"?>
<!-- Generator: Adobe Illustrator 25.4.1, SVG Export Plug-In . SVG Version: 6.00 Build 0)  -->
<svg version="1.1" id="Layer_1" xmlns="http://www.w3.org/2000/svg" xmlns:xlink="http://www.w3.org/1999/xlink" x="0px" y="0px"
	 viewBox="0 0 24 24" style="enable-background:new 0 0 24 24;" xml:space="preserve">
<path d="M16,10.5V17H7v-6.5C7,8,9,6,11.5,6S16,8,16,10.5z M24,0v24H0V0H24z M13.5,20h-4c0,1.1,0.9,2,2,2S13.5,21.1,13.5,20z M20,18
	l-2-2v-5.5c0-3.1-2.1-5.6-5-6.3V3.5C13,2.7,12.3,2,11.5,2S10,2.7,10,3.5v0.7c-2.9,0.7-5,3.2-5,6.3V16l-2,2v1h17V18z"/>
</svg>
