<?xml version="1.0" encoding="utf-8"?>
<!-- Generator: Adobe Illustrator 25.4.1, SVG Export Plug-In . SVG Version: 6.00 Build 0)  -->
<svg version="1.1" id="Layer_1" xmlns="http://www.w3.org/2000/svg" xmlns:xlink="http://www.w3.org/1999/xlink" x="0px" y="0px"
	 viewBox="0 0 24 24" style="enable-background:new 0 0 24 24;" xml:space="preserve">
<path d="M6,3c1.7,0,3,1.3,3,3c0,1.3-0.8,2.4-2,2.8v6.3c1.2,0.4,2,1.5,2,2.8c0,1.7-1.3,3-3,3s-3-1.3-3-3c0-1.3,0.8-2.4,2-2.8V8.8
	C3.8,8.4,3,7.3,3,6C3,4.3,4.3,3,6,3 M6,5C5.4,5,5,5.4,5,6s0.4,1,1,1s1-0.4,1-1S6.6,5,6,5 M6,17c-0.6,0-1,0.4-1,1s0.4,1,1,1
	s1-0.4,1-1S6.6,17,6,17 M21,18c0,1.7-1.3,3-3,3s-3-1.3-3-3c0-1.3,0.8-2.4,2-2.8V7h-2v3.2L10.8,6L15,1.8V5h2c1.1,0,2,0.9,2,2v8.2
	C20.2,15.6,21,16.7,21,18 M18,17c-0.6,0-1,0.4-1,1s0.4,1,1,1s1-0.4,1-1S18.6,17,18,17z M24,0H0v24h24V0z"/>
</svg>
