<?xml version="1.0" encoding="utf-8"?>
<!-- Generator: Adobe Illustrator 25.4.1, SVG Export Plug-In . SVG Version: 6.00 Build 0)  -->
<svg version="1.1" id="Layer_1" xmlns="http://www.w3.org/2000/svg" xmlns:xlink="http://www.w3.org/1999/xlink" x="0px" y="0px"
	 viewBox="0 0 24 24" style="enable-background:new 0 0 24 24;" xml:space="preserve">
<path d="M0,0v24h24V0H0z M21.6,19.9L21.6,19.9c-0.2,0-0.3-0.1-0.4-0.2c-2.5-4.6-6.1-5.1-10.8-5.1V19c0,0.3-0.1,0.4-0.2,0.5
	c-0.1,0-0.3,0-0.4-0.1L2.1,12C2,11.9,2,11.8,2,11.7c0-0.2,0-0.3,0.1-0.4l7.7-7.2C10,4,10.2,4,10.3,4c0.1,0,0.2,0.1,0.1,0.3V8
	c3.9,0.2,7.1,2.1,9.3,5.6c1.8,2.8,2.2,5.5,2.1,5.8C21.9,19.6,21.8,19.8,21.6,19.9z M17.1,13.5c-2.1-0.7-4.3-0.8-6.7-0.8h-2v2v0.7
	l-3.7-3.7l3.8-3.6v2l1.9,0.1C13.1,10.3,15.3,11.4,17.1,13.5z"/>
</svg>
