<?xml version="1.0" encoding="utf-8"?>
<!-- Generator: Adobe Illustrator 25.4.1, SVG Export Plug-In . SVG Version: 6.00 Build 0)  -->
<svg version="1.1" id="Layer_1" xmlns="http://www.w3.org/2000/svg" xmlns:xlink="http://www.w3.org/1999/xlink" x="0px" y="0px"
	 viewBox="0 0 24 24" style="enable-background:new 0 0 24 24;" xml:space="preserve">
<path d="M18.2,12.2L21,9.3c0.4-0.4,0.4-1,0-1.4c-0.4-0.4-1-0.4-1.4,0l-2.8,2.8l-3.5-3.5l2.8-2.8c0.4-0.4,0.4-1,0-1.4
	c-0.4-0.4-1-0.4-1.4,0l-2.8,2.8L9,3C8.6,2.6,8,2.6,7.6,3l0,0c-0.4,0.4-0.4,1,0,1.4l0.7,0.7L5.1,8.3c-2.7,2.7-2.9,6.9-0.6,9.9
	c0,0,0,0-0.1,0l-2.1,2.1c-0.4,0.4-0.4,1,0,1.4s1,0.4,1.4,0l2.1-2.1c0,0,0,0,0-0.1c2.9,2.3,7.2,2,9.9-0.6l3.2-3.2l0.7,0.7
	c0.4,0.4,1,0.4,1.4,0l0,0c0.4-0.4,0.4-1,0-1.4L18.2,12.2z M14.3,17.5c-2.1,2.1-5.6,2.1-7.8,0s-2.1-5.6,0-7.8l3.2-3.2l7.8,7.8
	L14.3,17.5z M24,24H0V0h24V24z"/>
</svg>
