<?xml version="1.0" encoding="utf-8"?>
<!-- Generator: Adobe Illustrator 25.4.1, SVG Export Plug-In . SVG Version: 6.00 Build 0)  -->
<svg version="1.1" id="Layer_1" xmlns="http://www.w3.org/2000/svg" xmlns:xlink="http://www.w3.org/1999/xlink" x="0px" y="0px"
	 viewBox="0 0 24 24" style="enable-background:new 0 0 24 24;" xml:space="preserve">
<path d="M10,19h3v3h-3V19 M12,2c5.4,0.2,7.7,5.6,4.5,9.7c-0.8,1-2.2,1.7-2.8,2.5C13,15,13,16,13,17h-3c0-1.7,0-3.1,0.7-4.1
	c0.7-1,2-1.6,2.8-2.2C15.9,8.4,15.3,5.3,12,5c-1.7,0-3,1.3-3,3H6C6,4.7,8.7,2,12,2z M24,0H0v24h24V0z"/>
</svg>
