<?xml version="1.0" encoding="utf-8"?>
<!-- Generator: Adobe Illustrator 25.4.1, SVG Export Plug-In . SVG Version: 6.00 Build 0)  -->
<svg version="1.1" id="Layer_1" xmlns="http://www.w3.org/2000/svg" xmlns:xlink="http://www.w3.org/1999/xlink" x="0px" y="0px"
	 viewBox="0 0 24 24" style="enable-background:new 0 0 24 24;" xml:space="preserve">
<path d="M0,0v24h24V0H0z M12.7,15.3l-0.4-0.2c-0.7,0.4-1.4,0.6-2.3,0.6s-1.6-0.2-2.3-0.6L4.6,17c-0.1,0-0.2,0.1-0.3,0.1
	c-0.1,0.1-0.2,0.3-0.3,0.5c0,0.1,0,0.2,0,0.3C4,18.5,4.4,19,5,19h7.1c0.1,0.7,0.3,1.4,0.7,2H5c-1.6,0-3-1.4-3-3.1
	c0-1.1,0.7-2.2,1.7-2.7l2.5-1.5c-1-1.4-1.6-3.3-1.6-5.2C4.6,5.2,6.8,3,10,3s5.4,2.2,5.5,5.5c0,1.9-0.6,3.8-1.6,5.2
	C13.4,14.1,13,14.7,12.7,15.3z M22,19h-3v3h-2v-3h-3v-2h3v-3h2v3h3V19z M13.4,8.5c0,1.5-0.5,3.1-1.4,4.2c-0.5,0.7-1.2,1.1-2.1,1.1
	c-0.3,0-0.5,0-0.8-0.1c-0.1,0-0.2-0.1-0.4-0.2S8.3,13.2,8.1,13c-0.1-0.1-0.2-0.2-0.3-0.4c-0.1-0.1-0.1-0.2-0.2-0.3
	c-0.2-0.2-0.3-0.5-0.4-0.8c-0.2-0.4-0.4-0.8-0.5-1.3c0-0.2,0-0.5-0.1-0.8c0-0.3-0.1-0.6-0.1-0.9C6.6,6.1,8.1,5,10,5
	S13.4,6.1,13.4,8.5z"/>
</svg>
