<?xml version="1.0" encoding="utf-8"?>
<!-- Generator: Adobe Illustrator 25.4.1, SVG Export Plug-In . SVG Version: 6.00 Build 0)  -->
<svg version="1.1" id="Layer_1" xmlns="http://www.w3.org/2000/svg" xmlns:xlink="http://www.w3.org/1999/xlink" x="0px" y="0px"
	 viewBox="0 0 24 24" style="enable-background:new 0 0 24 24;" xml:space="preserve">
<path d="M10.5,19c-1.5,2.1-4.3,2.6-6.4,1.1C2,18.7,1.6,15.8,3,13.8c0.9-1.2,2.2-1.9,3.6-2l0.1,1.4c-0.9,0.1-1.8,0.5-2.4,1.4
	c-1,1.4-0.7,3.4,0.7,4.3c1.4,1,3.3,0.6,4.3-0.8c0.3-0.4,0.5-0.9,0.6-1.4v-1l5.6,0l0.1-0.1c0.5-0.9,1.7-1.2,2.6-0.7
	c0.9,0.5,1.2,1.7,0.7,2.6c-0.5,0.9-1.7,1.2-2.6,0.7c-0.4-0.2-0.7-0.6-0.8-1l-4.1,0C11.1,17.7,10.9,18.4,10.5,19 M17.7,11.9
	c2.5,0.3,4.3,2.6,4,5.1c-0.3,2.5-2.6,4.3-5.1,4c-1.5-0.2-2.7-1-3.4-2.2l1.2-0.7c0.5,0.8,1.3,1.3,2.3,1.5c1.8,0.2,3.3-1,3.5-2.6
	c0.2-1.7-1-3.2-2.8-3.4c-0.5-0.1-1.1,0-1.5,0.2L15.1,14l-2.6-4.8h-0.2c-1.1,0-1.9-0.9-1.8-1.9c0-1,0.9-1.8,2-1.8
	c1.1,0.1,1.9,0.9,1.9,1.9c0,0.4-0.2,0.8-0.5,1.2l1.9,3.5C16.4,11.9,17,11.8,17.7,11.9 M8.2,9.1c-1-2.4,0.1-5,2.4-6
	c2.3-1,5,0.1,6,2.5c0.6,1.4,0.5,2.9-0.2,4.1l-1.2-0.7c0.4-0.8,0.5-1.8,0.1-2.7c-0.7-1.6-2.5-2.4-4-1.7C9.7,5.2,9,7,9.6,8.6
	c0.3,0.7,0.8,1.2,1.3,1.5l0.4,0.2l-3.1,5c0,0,0.1,0.1,0.1,0.2c0.5,0.9,0.1,2.1-0.8,2.5c-0.9,0.5-2.1,0.1-2.6-0.8
	c-0.5-0.9-0.2-2.1,0.8-2.6c0.4-0.2,0.8-0.3,1.2-0.2l2.3-3.8C8.9,10.3,8.5,9.8,8.2,9.1z M24,0H0v24h24V0z"/>
</svg>
