<?xml version="1.0" encoding="utf-8"?>
<!-- Generator: Adobe Illustrator 25.4.1, SVG Export Plug-In . SVG Version: 6.00 Build 0)  -->
<svg version="1.1" id="Layer_1" xmlns="http://www.w3.org/2000/svg" xmlns:xlink="http://www.w3.org/1999/xlink" x="0px" y="0px"
	 viewBox="0 0 24 24" style="enable-background:new 0 0 24 24;" xml:space="preserve">
<path d="M19.5,18c0,0.8-0.7,1.5-1.5,1.5s-1.5-0.7-1.5-1.5s0.7-1.5,1.5-1.5S19.5,17.2,19.5,18z M24,0v24H0V0H24z M11.3,20
	c-0.2-0.6-0.3-1.3-0.3-2H5V8h14v3.1c0.7,0.1,1.4,0.3,2,0.6V6c0-1.1-0.9-2-2-2H5C3.9,4,3,4.9,3,6v12c0,1.1,0.9,2,2,2H11.3z
	 M21.7,18.6v-1l1.1-0.8c0.1-0.1,0.2-0.2,0.1-0.3l-1-1.7c0-0.1-0.2-0.1-0.3-0.1l-1.2,0.5c-0.3-0.2-0.6-0.4-0.9-0.5l-0.2-1.3
	c0-0.1-0.1-0.2-0.2-0.2h-2c-0.2,0-0.3,0.1-0.3,0.2l-0.2,1.3c-0.3,0.2-0.5,0.3-0.8,0.5l-1.2-0.5c-0.1,0-0.2,0-0.3,0.1l-1,1.7
	c0,0.1,0,0.2,0.1,0.3l1.1,0.8v1l-1.1,0.8c-0.1,0.1-0.2,0.2-0.1,0.3l1,1.7c0.1,0.1,0.2,0.1,0.3,0.1l1.2-0.5c0.2,0.2,0.5,0.4,0.8,0.5
	l0.2,1.3c0.1,0.1,0.2,0.2,0.3,0.2h2c0.1,0,0.2-0.1,0.2-0.2l0.2-1.3c0.3-0.2,0.5-0.3,0.8-0.5l1.2,0.4c0.1,0,0.2,0,0.3-0.1l1-1.7
	c0.1-0.1,0.1-0.2,0-0.2L21.7,18.6z"/>
</svg>
