<?xml version="1.0" encoding="utf-8"?>
<!-- Generator: Adobe Illustrator 25.4.1, SVG Export Plug-In . SVG Version: 6.00 Build 0)  -->
<svg version="1.1" id="Layer_1" xmlns="http://www.w3.org/2000/svg" xmlns:xlink="http://www.w3.org/1999/xlink" x="0px" y="0px"
	 viewBox="0 0 24 24" style="enable-background:new 0 0 24 24;" xml:space="preserve">
<path d="M0,0v24h24V0H0z M21.8,9.8l-4.9,4.3l1.5,6.3c0.1,0.4-0.2,0.7-0.5,0.7c-0.1,0-0.2,0-0.3-0.1L12,17.6L6.4,21
	c-0.1,0.1-0.2,0.1-0.3,0.1c-0.3,0-0.6-0.3-0.5-0.7l1.5-6.3L2.2,9.8C1.8,9.5,2,8.9,2.5,8.9L9,8.3l2.5-6C11.6,2.1,11.8,2,12,2
	s0.4,0.1,0.5,0.3l2.5,6l6.5,0.6C22,8.9,22.2,9.5,21.8,9.8z M14.8,10.1l3.6,0.3l-2.8,2.4l-0.8,0.7l0.2,1l1,3.5l-3.1-1.9L12,15.6
	l-0.9,0.5L8,18l0.8-3.5l0.2-1l-0.8-0.7l-2.7-2.4L9.1,10l1-0.1l0.4-1L12,5.6L13.4,9l0.4,1L14.8,10.1z"/>
</svg>
