<?xml version="1.0" encoding="utf-8"?>
<!-- Generator: Adobe Illustrator 25.4.1, SVG Export Plug-In . SVG Version: 6.00 Build 0)  -->
<svg version="1.1" id="Layer_1" xmlns="http://www.w3.org/2000/svg" xmlns:xlink="http://www.w3.org/1999/xlink" x="0px" y="0px"
	 viewBox="0 0 24 24" style="enable-background:new 0 0 24 24;" xml:space="preserve">
<path d="M10,6.5H6.2L10,2.7V6.5z M24,0v24H0V0H24z M18.7,22H6.5C5.1,22,4,20.9,4,19.5V7.3c0,0-1,1.2-1,1.6v10.9
	C3,21.5,4.5,23,6.2,23H17C17.7,23,18.4,22.6,18.7,22z M21,3c0-1.1-0.9-2-2-2h-8c-0.4,0-0.8,0.2-1.1,0.4L5.5,5.8C5.2,6.1,5,6.5,5,6.9
	V19c0,1.1,0.9,2,2,2h12c1.1,0,2-0.9,2-2V3z M19,2h-8v4.5c0,0.6-0.4,1-1,1H6V19c0,0.6,0.4,1,1,1h12c0.6,0,1-0.4,1-1V3
	C20,2.4,19.6,2,19,2z"/>
</svg>
