<?xml version="1.0" encoding="utf-8"?>
<!-- Generator: Adobe Illustrator 25.4.1, SVG Export Plug-In . SVG Version: 6.00 Build 0)  -->
<svg version="1.1" id="Layer_1" xmlns="http://www.w3.org/2000/svg" xmlns:xlink="http://www.w3.org/1999/xlink" x="0px" y="0px"
	 viewBox="0 0 24 24" style="enable-background:new 0 0 24 24;" xml:space="preserve">
<path d="M12,9c1.7,0,3,1.3,3,3s-1.3,3-3,3s-3-1.3-3-3S10.3,9,12,9 M12,4.5c5,0,9.3,3.1,11,7.5c-1.7,4.4-6,7.5-11,7.5S2.7,16.4,1,12
	C2.7,7.6,7,4.5,12,4.5 M3.2,12c1.6,3.4,5.1,5.5,8.8,5.5s7.2-2.1,8.8-5.5c-1.6-3.4-5.1-5.5-8.8-5.5S4.8,8.6,3.2,12z M24,0H0v24h24V0z
	"/>
</svg>
