<?xml version="1.0" encoding="utf-8"?>
<!-- Generator: Adobe Illustrator 25.4.1, SVG Export Plug-In . SVG Version: 6.00 Build 0)  -->
<svg version="1.1" id="Layer_1" xmlns="http://www.w3.org/2000/svg" xmlns:xlink="http://www.w3.org/1999/xlink" x="0px" y="0px"
	 viewBox="0 0 24 24" style="enable-background:new 0 0 24 24;" xml:space="preserve">
<path d="M2,5.3L3.3,4L20,20.7L18.7,22l-4.8-4.8l-2.6,2.6c-1.9,1.9-5.1,1.9-7.1,0s-1.9-5.1,0-7.1l1.5-1.5c0,0.8,0.1,1.6,0.4,2.4
	l-0.5,0.5c-1.2,1.2-1.2,3.1,0,4.2c1.2,1.2,3.1,1.2,4.2,0l2.6-2.6l-1.6-1.6c0,0.2-0.1,0.5-0.3,0.7c-0.4,0.4-1,0.4-1.4,0
	c-1.1-1.1-1.5-2.5-1.5-3.8L2,5.3 M12.7,4.2c1.9-1.9,5.1-1.9,7.1,0s1.9,5.1,0,7.1l-1.5,1.5c0-0.8-0.1-1.6-0.4-2.4l0.5-0.5
	c1.2-1.2,1.2-3.1,0-4.2c-1.2-1.2-3.1-1.2-4.2,0L10.8,9L9.4,7.6L12.7,4.2 M13.4,9.2c0.4-0.4,1-0.4,1.4,0c1.4,1.4,1.8,3.3,1.2,5.1
	l-1.8-1.8c-0.1-0.7-0.3-1.4-0.9-1.9C13,10.2,13,9.6,13.4,9.2z M24,0H0v24h24V0z"/>
</svg>
