<?xml version="1.0" encoding="utf-8"?>
<!-- Generator: Adobe Illustrator 25.4.1, SVG Export Plug-In . SVG Version: 6.00 Build 0)  -->
<svg version="1.1" id="Layer_1" xmlns="http://www.w3.org/2000/svg" xmlns:xlink="http://www.w3.org/1999/xlink" x="0px" y="0px"
	 viewBox="0 0 24 24" style="enable-background:new 0 0 24 24;" xml:space="preserve">
<path d="M20,8.5c0,2.9-3.1,5.7-7.9,10L12,18.6l-0.1-0.1C7.1,14.2,4,11.4,4,8.5C4,6.5,5.5,5,7.5,5c1.5,0,3,1,3.6,2.4H13
	C13.5,6,15,5,16.5,5C18.5,5,20,6.5,20,8.5z M24,0v24H0V0H24z M22,8.5C22,5.4,19.6,3,16.5,3c-1.7,0-3.4,0.8-4.5,2.1
	C10.9,3.8,9.2,3,7.5,3C4.4,3,2,5.4,2,8.5c0,3.8,3.4,6.9,8.6,11.5l1.4,1.3l1.4-1.3C18.6,15.3,22,12.2,22,8.5z"/>
</svg>
