<?xml version="1.0" encoding="utf-8"?>
<!-- Generator: Adobe Illustrator 25.4.1, SVG Export Plug-In . SVG Version: 6.00 Build 0)  -->
<svg version="1.1" id="Layer_1" xmlns="http://www.w3.org/2000/svg" xmlns:xlink="http://www.w3.org/1999/xlink" x="0px" y="0px"
	 viewBox="0 0 24 24" style="enable-background:new 0 0 24 24;" xml:space="preserve">
<path d="M18,9c1.1,0,2,0.9,2,2v9c0,1.1-0.9,2-2,2H6c-1.1,0-2-0.9-2-2v-9c0-1.1,0.9-2,2-2h1V7c0-2.8,2.2-5,5-5s5,2.2,5,5v2H18 M12,4
	c-1.7,0-3,1.3-3,3v2h6V7C15,5.3,13.7,4,12,4z M24,0H0v24h24V0z"/>
</svg>
