<?xml version="1.0" encoding="utf-8"?>
<!-- Generator: Adobe Illustrator 25.4.1, SVG Export Plug-In . SVG Version: 6.00 Build 0)  -->
<svg version="1.1" id="Layer_1" xmlns="http://www.w3.org/2000/svg" xmlns:xlink="http://www.w3.org/1999/xlink" x="0px" y="0px"
	 viewBox="0 0 24 24" style="enable-background:new 0 0 24 24;" xml:space="preserve">
<path d="M19,15v3h-3v2h3v3h2v-3h3v-2h-3v-3H19 M14,18H3V8l8,5l8-5v5h2V6c0-1.1-0.9-2-2-2H3C1.9,4,1,4.9,1,6v12c0,1.1,0.9,2,2,2h11
	V18 M19,6l-8,5L3,6H19z M24,24H0V0h24V24z"/>
</svg>
