<?xml version="1.0" encoding="utf-8"?>
<!-- Generator: Adobe Illustrator 25.4.1, SVG Export Plug-In . SVG Version: 6.00 Build 0)  -->
<svg version="1.1" id="Layer_1" xmlns="http://www.w3.org/2000/svg" xmlns:xlink="http://www.w3.org/1999/xlink" x="0px" y="0px"
	 viewBox="0 0 24 24" style="enable-background:new 0 0 24 24;" xml:space="preserve">
<path d="M18.2,10H5.8l1-3h10.3L18.2,10z M5,12h14v5H5V12z M15,14.5c0,0.8,0.7,1.5,1.5,1.5s1.5-0.7,1.5-1.5S17.3,13,16.5,13
	S15,13.7,15,14.5z M6,14.5C6,15.3,6.7,16,7.5,16S9,15.3,9,14.5S8.3,13,7.5,13S6,13.7,6,14.5z M24,0v24H0V0H24z M21,12l-2.1-6
	c-0.2-0.6-0.8-1-1.4-1h-11C5.8,5,5.3,5.4,5.1,6L3,12v8c0,0.5,0.5,1,1,1h1c0.6,0,1-0.5,1-1v-1h12v1c0,0.5,0.5,1,1,1h1
	c0.5,0,1-0.5,1-1V12z"/>
</svg>
