<?xml version="1.0" encoding="utf-8"?>
<!-- Generator: Adobe Illustrator 25.4.1, SVG Export Plug-In . SVG Version: 6.00 Build 0)  -->
<svg version="1.1" id="Layer_1" xmlns="http://www.w3.org/2000/svg" xmlns:xlink="http://www.w3.org/1999/xlink" x="0px" y="0px"
	 viewBox="0 0 24 24" style="enable-background:new 0 0 24 24;" xml:space="preserve">
<path d="M18,8V6c0-1.1-0.9-2-2-2H4C2.9,4,2,4.9,2,6v12c0,1.1,0.9,2,2,2h12c1.1,0,2-0.9,2-2v-2l2.6,1.3c0.7,0.3,1.4-0.2,1.4-0.9V7.6
	c0-0.7-0.8-1.2-1.4-0.9L18,8z M20,14.8l-2-1l-1.3-0.6C16.4,13,16,13.2,16,13.6V15v3H4V6h12v3v1.4c0,0.4,0.4,0.6,0.7,0.4l1.3-0.6l2-1
	V14.8z M24,24H0V0h24V24z"/>
</svg>
