<?xml version="1.0" encoding="utf-8"?>
<!-- Generator: Adobe Illustrator 25.4.1, SVG Export Plug-In . SVG Version: 6.00 Build 0)  -->
<svg version="1.1" id="Layer_1" xmlns="http://www.w3.org/2000/svg" xmlns:xlink="http://www.w3.org/1999/xlink" x="0px" y="0px"
	 viewBox="0 0 24 24" style="enable-background:new 0 0 24 24;" xml:space="preserve">
<path d="M16.5,7v9.5c0,2.2-1.8,4-4,4s-4-1.8-4-4V6c0-1.4,1.1-2.5,2.5-2.5s2.5,1.1,2.5,2.5v9.5c0,0.6-0.4,1-1,1s-1-0.4-1-1V7H10v8.5
	c0,1.4,1.1,2.5,2.5,2.5s2.5-1.1,2.5-2.5V6c0-2.2-1.8-4-4-4S7,3.8,7,6v10.5c0,3,2.5,5.5,5.5,5.5s5.5-2.5,5.5-5.5V7H16.5z M24,24H0V0
	h24V24z"/>
</svg>
