<?xml version="1.0" encoding="utf-8"?>
<!-- Generator: Adobe Illustrator 25.4.1, SVG Export Plug-In . SVG Version: 6.00 Build 0)  -->
<svg version="1.1" id="Layer_1" xmlns="http://www.w3.org/2000/svg" xmlns:xlink="http://www.w3.org/1999/xlink" x="0px" y="0px"
	 viewBox="0 0 24 24" style="enable-background:new 0 0 24 24;" xml:space="preserve">
<path d="M13.3,8.3C12,8.4,10.8,9,9.9,9.9C9,10.8,8.4,12,8.2,13.3c-1,0.2-2,0.6-2.8,1.2c-0.2-2.4,0.7-4.8,2.5-6.6
	c1.8-1.8,4.3-2.6,6.6-2.4C13.9,6.3,13.4,7.3,13.3,8.3z M24,0v24H0V0H24z M11.4,11.2c1.1-1.1,2.6-1.4,4-1.1c-0.4-1.3,0-2.9,1.1-4
	c0.8-0.8,1.8-1.2,2.8-1.2c-4-2.4-9.3-2-12.8,1.5s-4,8.9-1.4,12.8c0-1,0.4-2.1,1.2-2.9c1.1-1.1,2.6-1.4,4-1.1
	C9.9,13.9,10.2,12.3,11.4,11.2z M20.6,19.2l-7.1-7.1l-1.4,1.4l7.1,7.1L20.6,19.2z"/>
</svg>
