<?xml version="1.0" encoding="utf-8"?>
<!-- Generator: Adobe Illustrator 25.4.1, SVG Export Plug-In . SVG Version: 6.00 Build 0)  -->
<svg version="1.1" id="Layer_1" xmlns="http://www.w3.org/2000/svg" xmlns:xlink="http://www.w3.org/1999/xlink" x="0px" y="0px"
	 viewBox="0 0 24 24" style="enable-background:new 0 0 24 24;" xml:space="preserve">
<path d="M12,2C6.5,2,2,6.5,2,12s4.5,10,10,10s10-4.5,10-10S17.5,2,12,2 M12,3c1.8,0,3.4,0.5,4.8,1.4L16.5,5H13h-1l-1.7-0.8l0.4-1
	C11.1,3,11.5,3,12,3 M9.5,3.4l-0.3,1L6.6,5.7L5.4,5.9C6.5,4.7,7.9,3.8,9.5,3.4 M13,6h3l2.7,3.6l-1.2,2.6l-2.6,0.6l-3.3-3.8L13,6
	 M6.2,6.7L7,10l-1.2,3.1l-2.6,0.9C3.1,13.3,3,12.7,3,12c0-1.9,0.6-3.6,1.6-5.1L6.2,6.7 M20.6,9.2C20.9,10.1,21,11,21,12
	c0,1.4-0.4,2.8-1,4h-1l-0.8-3.3l1.5-3L20.6,9.2 M8,10h3l2.8,3.3L12,16l-3.2,0.8l-2.3-3.1L8,10 M12,17l3,2l-0.9,1.7
	C13.4,20.9,12.7,21,12,21c-1.8,0-3.4-0.5-4.8-1.4l1.2-1.7L12,17 M19,17h0.5c-1,1.5-2.5,2.7-4.2,3.3L16,19L19,17z M24,24H0V0h24V24z"
	/>
</svg>
