<?xml version="1.0" encoding="utf-8"?>
<!-- Generator: Adobe Illustrator 25.4.1, SVG Export Plug-In . SVG Version: 6.00 Build 0)  -->
<svg version="1.1" id="Layer_1" xmlns="http://www.w3.org/2000/svg" xmlns:xlink="http://www.w3.org/1999/xlink" x="0px" y="0px"
	 viewBox="0 0 24 24" style="enable-background:new 0 0 24 24;" xml:space="preserve">
<path d="M12,2c3.9,0,7,3.1,7,7c0,2.4-1.2,4.5-3,5.7V17c0,0.6-0.4,1-1,1H9c-0.6,0-1-0.4-1-1v-2.3C6.2,13.5,5,11.4,5,9
	C5,5.1,8.1,2,12,2 M9,21v-1h6v1c0,0.6-0.4,1-1,1h-4C9.4,22,9,21.6,9,21 M12,4C9.2,4,7,6.2,7,9c0,2.1,1.2,3.8,3,4.6V16h4v-2.4
	c1.8-0.8,3-2.5,3-4.6C17,6.2,14.8,4,12,4z M24,0H0v24h24V0z"/>
</svg>
