<?xml version="1.0" encoding="utf-8"?>
<!-- Generator: Adobe Illustrator 25.4.1, SVG Export Plug-In . SVG Version: 6.00 Build 0)  -->
<svg version="1.1" id="Layer_1" xmlns="http://www.w3.org/2000/svg" xmlns:xlink="http://www.w3.org/1999/xlink" x="0px" y="0px"
	 viewBox="0 0 24 24" style="enable-background:new 0 0 24 24;" xml:space="preserve">
<path d="M17.1,12.1c0.3,0.7,0.4,1.6,0.4,2.4c0,1-0.2,1.9-0.7,2.7c-0.5,0.9-1.2,1.5-2,2C13.9,19.8,13,20,12,20s-1.9-0.2-2.7-0.7
	c-0.9-0.5-1.5-1.2-2-2s-0.7-1.7-0.7-2.7c0-0.9,0.2-1.7,0.6-2.5c0,0,0-0.1,0.1-0.1v1.4c0,1,0.4,1.9,1,2.5c0.7,0.7,1.6,1,2.5,1
	c0.9,0,1.9-0.4,2.5-1c0.7-0.7,1-1.6,1-2.5c0-0.6-0.2-1.2-0.5-1.8c-0.1-0.3-0.3-0.7-0.7-1.3c-0.6-1-0.9-1.6-1.1-1.9
	c-0.2-0.7-0.3-1.3-0.3-2c0.1-0.2,0.1-0.3,0.1-0.4c0.1,0.1,0.2,0.3,0.3,0.4c0.4,0.6,1.1,1.3,2.1,2.2c0.8,0.7,1.4,1.3,1.7,1.7
	C16.4,10.9,16.8,11.5,17.1,12.1z M24,0v24H0V0H24z M19.5,14.5c0-1.1-0.2-2.2-0.6-3.2c-0.3-0.8-0.8-1.5-1.5-2.3
	c-0.4-0.4-1-1.1-1.8-1.8c-0.9-0.8-1.5-1.5-1.8-1.9C13.3,4.5,13,3.8,13,3c0-0.3-0.1-0.5-0.3-0.7C12.4,2.1,12.2,2,12,2h-0.1
	c-0.3,0-0.5,0.2-0.7,0.4c-0.8,1.3-1.3,2.5-1.4,3.7C9.7,7.1,9.9,8,10.2,9c0.2,0.5,0.6,1.3,1.2,2.2c0.3,0.5,0.5,0.9,0.6,1.1
	c0.2,0.3,0.3,0.6,0.3,0.9c0,0.4-0.1,0.8-0.4,1.1c-0.3,0.3-0.7,0.4-1.1,0.4c-0.4,0-0.8-0.1-1.1-0.4s-0.4-0.7-0.4-1.1V9.1
	c0-0.4-0.2-0.6-0.5-0.8C8.5,8.2,8.4,8.2,8.2,8.2s-0.3,0-0.5,0.1C6.7,9,5.9,9.9,5.4,11c-0.6,1.1-0.9,2.3-0.9,3.5c0,1.4,0.3,2.6,1,3.7
	c0.7,1.1,1.6,2.1,2.7,2.7c1.1,0.6,2.4,1,3.8,1s2.6-0.3,3.8-1c1.2-0.7,2.1-1.6,2.7-2.7C19.2,17.1,19.5,15.8,19.5,14.5z"/>
</svg>
