<?xml version="1.0" encoding="utf-8"?>
<!-- Generator: Adobe Illustrator 25.4.1, SVG Export Plug-In . SVG Version: 6.00 Build 0)  -->
<svg version="1.1" id="Layer_1" xmlns="http://www.w3.org/2000/svg" xmlns:xlink="http://www.w3.org/1999/xlink" x="0px" y="0px"
	 viewBox="0 0 24 24" style="enable-background:new 0 0 24 24;" xml:space="preserve">
<path d="M20,16.2V13c0-1.1-0.9-2-2-2h-5V7.8c1.2-0.4,2-1.5,2-2.8c0-1.7-1.3-3-3-3S9,3.3,9,5c0,1.3,0.8,2.4,2,2.8V11H6
	c-1.1,0-2,0.9-2,2v3.2c-1.2,0.4-2,1.5-2,2.8c0,1.7,1.3,3,3,3s3-1.3,3-3c0-1.3-0.8-2.4-2-2.8V13h5v3.2c-1.2,0.4-2,1.5-2,2.8
	c0,1.7,1.3,3,3,3s3-1.3,3-3c0-1.3-0.8-2.4-2-2.8V13h5v3.2c-1.2,0.4-2,1.5-2,2.8c0,1.7,1.3,3,3,3s3-1.3,3-3
	C22,17.7,21.2,16.6,20,16.2z M24,24H0V0h24V24z"/>
</svg>
