<?xml version="1.0" encoding="utf-8"?>
<!-- Generator: Adobe Illustrator 25.4.1, SVG Export Plug-In . SVG Version: 6.00 Build 0)  -->
<svg version="1.1" id="Layer_1" xmlns="http://www.w3.org/2000/svg" xmlns:xlink="http://www.w3.org/1999/xlink" x="0px" y="0px"
	 viewBox="0 0 24 24" style="enable-background:new 0 0 24 24;" xml:space="preserve">
<path d="M15.6,10.8c1-0.7,1.6-1.8,1.6-2.8c0-2.3-1.8-4-4-4H7v14h7c2.1,0,3.7-1.7,3.7-3.8C17.8,12.7,16.9,11.4,15.6,10.8z M10,6.5h3
	c0.8,0,1.5,0.7,1.5,1.5S13.8,9.5,13,9.5h-3V6.5z M13.5,15.5H10v-3h3.5c0.8,0,1.5,0.7,1.5,1.5S14.3,15.5,13.5,15.5z M24,24H0V0h24V24
	z"/>
</svg>
