<?xml version="1.0" encoding="utf-8"?>
<!-- Generator: Adobe Illustrator 25.4.1, SVG Export Plug-In . SVG Version: 6.00 Build 0)  -->
<svg version="1.1" id="Layer_1" xmlns="http://www.w3.org/2000/svg" xmlns:xlink="http://www.w3.org/1999/xlink" x="0px" y="0px"
	 viewBox="0 0 24 24" style="enable-background:new 0 0 24 24;" xml:space="preserve">
<path d="M12,17.6l5.6,3.4c0.4,0.2,0.9-0.1,0.8-0.6l-1.5-6.3l4.9-4.3c0.4-0.3,0.2-0.9-0.3-0.9L15,8.3l-2.5-6c-0.2-0.4-0.8-0.4-1,0
	L9,8.3L2.5,8.9C2,8.9,1.8,9.5,2.2,9.8l4.9,4.3l-1.5,6.3C5.5,20.9,6,21.2,6.4,21L12,17.6z M24,24H0V0h24V24z"/>
</svg>
