<?xml version="1.0" encoding="utf-8"?>
<!-- Generator: Adobe Illustrator 25.4.1, SVG Export Plug-In . SVG Version: 6.00 Build 0)  -->
<svg version="1.1" id="Layer_1" xmlns="http://www.w3.org/2000/svg" xmlns:xlink="http://www.w3.org/1999/xlink" x="0px" y="0px"
	 viewBox="0 0 24 24" style="enable-background:new 0 0 24 24;" xml:space="preserve">
<path d="M18.7,2c-2,0-3.8,0.3-5.3,1.2c-0.7,0.4-1.2,0.9-1.6,1.6c-0.1-0.1-0.2-0.2-0.3-0.3C10.7,3.7,9.7,3,8.8,2.6
	C8.3,2.4,7.7,2.7,7.6,3.2C7.4,3.7,7.7,4.3,8.2,4.4c0.6,0.2,1.3,0.7,1.9,1.3c0.3,0.3,0.5,0.6,0.6,0.8C9,6.3,7.3,6.4,5.9,7.2
	c-2,1-3.1,3.1-2.9,5.9c0.3,3,1.4,5.2,3,6.7c1.7,1.5,3.8,2.2,6,2.2c4,0,8.4-2.9,9-8.9c0.3-2.8-0.9-4.9-2.7-6c1-1.1,1.6-2.5,1.7-3.8
	C20,2.6,19.4,2,18.7,2z M17.8,4c-0.2,0.7-0.7,1.5-1.4,2.1c-0.8,0.7-1.9,1.2-3.4,1c0.2-1.2,0.7-1.8,1.4-2.3C15.3,4.4,16.4,4.1,17.8,4
	z M12,9c1.7,0.3,3.3,0.1,4.5-0.5c1.4,0.4,2.7,1.9,2.5,4.4c-0.5,5-4,7.1-7,7.1c-1.8,0-3.4-0.6-4.6-1.7S5.3,15.4,5,12.9
	C4.8,10.8,5.6,9.6,6.8,9c1.2-0.6,3-0.7,4.9,0c0.1,0,0.2,0,0.2,0.1C11.9,9,12,9,12,9z M24,24H0V0h24V24z"/>
</svg>
