<?xml version="1.0" encoding="utf-8"?>
<!-- Generator: Adobe Illustrator 25.4.1, SVG Export Plug-In . SVG Version: 6.00 Build 0)  -->
<svg version="1.1" id="Layer_1" xmlns="http://www.w3.org/2000/svg" xmlns:xlink="http://www.w3.org/1999/xlink" x="0px" y="0px"
	 viewBox="0 0 24 24" style="enable-background:new 0 0 24 24;" xml:space="preserve">
<path d="M0,0v24h24V0H0z M12.2,3c1.6,0,3,0.5,3.9,1.3C16.9,5,17.6,6,17.6,7.5h-3c0-0.3-0.1-0.6-0.1-0.8c-0.3-0.9-1.2-1.3-2.2-1.3
	c-1.9,0-2.3,1-2.3,1.7c0,0.5,0.2,0.9,0.7,1.2C11,8.6,11.4,8.8,12,9H7.4C7.2,8.7,6.8,8.1,6.8,7.1C6.8,4.4,9.4,3,12.2,3z M21,12h-3.9
	c0.5,0.7,0.5,1.6,0.5,1.9c0,3.2-3,4.1-5.3,4.1c-2.4,0-4.9-1-5.7-3.2c-0.1-0.5-0.2-1-0.2-1.6h3c0,2,1.4,2.5,2.9,2.5s2.3-0.7,2.3-1.7
	c0-1.2-0.9-1.6-2-2H3v-2h18V12z"/>
</svg>
