<?xml version="1.0" encoding="utf-8"?>
<!-- Generator: Adobe Illustrator 25.4.1, SVG Export Plug-In . SVG Version: 6.00 Build 0)  -->
<svg version="1.1" id="Layer_1" xmlns="http://www.w3.org/2000/svg" xmlns:xlink="http://www.w3.org/1999/xlink" x="0px" y="0px"
	 viewBox="0 0 24 24" style="enable-background:new 0 0 24 24;" xml:space="preserve">
<path d="M3,4h2v6h4V4h2v14H9v-6H5v6H3V4 M21,18h-6c-1.1,0-2-0.9-2-2c0-0.5,0.2-1,0.5-1.4l4.9-5.2C18.8,9.1,19,8.6,19,8
	c0-1.1-0.9-2-2-2s-2,0.9-2,2h-2c0-2.2,1.8-4,4-4s4,1.8,4,4c0,1.1-0.5,2.1-1.2,2.8L15,16h6V18z M24,0H0v24h24V0z"/>
</svg>
