<?xml version="1.0" encoding="utf-8"?>
<!-- Generator: Adobe Illustrator 25.4.1, SVG Export Plug-In . SVG Version: 6.00 Build 0)  -->
<svg version="1.1" id="Layer_1" xmlns="http://www.w3.org/2000/svg" xmlns:xlink="http://www.w3.org/1999/xlink" x="0px" y="0px"
	 viewBox="0 0 24 24" style="enable-background:new 0 0 24 24;" xml:space="preserve">
<path d="M9.8,20.9c1.8-0.7,1.4-2.6,0.5-3.9c-0.9-1.2-2.1-2.1-3.4-2.9C6,13.5,5.2,12.8,4.5,12c-0.3-0.3-0.8-0.9-0.3-1.1
	c0.6-0.1,1.6,0.5,2.1,0.7C7.3,12,8.2,12.4,9.1,13l1-1.7c-1.6-1-3.6-1.9-5.4-2.2c-1.1-0.2-2.2,0.1-2.5,1.2c-0.3,1,0.2,2,0.8,2.8
	c1.4,1.8,3.5,2.7,5.1,4.3c0.3,0.3,0.8,0.7,0.9,1.2C9.1,18.9,9.1,19,8.6,19c-1.2,0-2.8-1-3.8-1.6l-1,1.7C5.3,20,7.9,21.5,9.8,20.9
	 M20.8,5.2c0.2-0.2,0.2-0.6,0-0.8l-1.3-1.3C19.3,3,19,3,18.8,3.2l-1,1l2.1,2.1 M11,10.9V13h2.1l6.1-6.2l-2.1-2.1L11,10.9z M24,24H0
	V0h24V24z"/>
</svg>
