<?xml version="1.0" encoding="utf-8"?>
<!-- Generator: Adobe Illustrator 25.4.1, SVG Export Plug-In . SVG Version: 6.00 Build 0)  -->
<svg version="1.1" id="Layer_1" xmlns="http://www.w3.org/2000/svg" xmlns:xlink="http://www.w3.org/1999/xlink" x="0px" y="0px"
	 viewBox="0 0 24 24" style="enable-background:new 0 0 24 24;" xml:space="preserve">
<path d="M3,3C2.4,3,2,3.4,2,4v4v1.5c0,1.7,1,3.1,2.5,3.7v6.3C4.5,20.3,5.2,21,6,21s1.5-0.7,1.5-1.5v-6.3c1.5-0.6,2.5-2,2.5-3.7V8V4
	c0-0.6-0.4-1-1-1S8,3.4,8,4v4c0,0.3-0.2,0.5-0.5,0.5S7,8.3,7,8V4c0-0.6-0.4-1-1-1S5,3.4,5,4v4c0,0.3-0.2,0.5-0.5,0.5S4,8.3,4,8V4
	C4,3.4,3.6,3,3,3 M19.9,3c-0.1,0-0.3,0.1-0.4,0.2L16,5.2V9h-4v2h1l1,10h6l1-10h1V9h-4V6.3l2.5-1.5C21,4.6,21.1,4,20.8,3.5
	C20.6,3.1,20.3,3,19.9,3z M24,24H0V0h24V24z"/>
</svg>
