<?xml version="1.0" encoding="utf-8"?>
<!-- Generator: Adobe Illustrator 25.4.1, SVG Export Plug-In . SVG Version: 6.00 Build 0)  -->
<svg version="1.1" id="Layer_1" xmlns="http://www.w3.org/2000/svg" xmlns:xlink="http://www.w3.org/1999/xlink" x="0px" y="0px"
	 viewBox="0 0 24 24" style="enable-background:new 0 0 24 24;" xml:space="preserve">
<path d="M20.1,18c-0.1-0.2-0.1-0.5-0.2-0.9c-0.7,0.7-1.5,1-2.4,1c-0.8,0-1.5-0.2-2.1-0.7c-0.5-0.5-0.8-1.1-0.8-1.8
	c0-0.9,0.3-1.6,1-2.1c0.7-0.5,1.6-0.7,2.8-0.7h1.4v-0.6c0-0.5-0.1-0.9-0.5-1.2c-0.3-0.3-0.8-0.4-1.3-0.4c-0.5,0-0.9,0.1-1.3,0.4
	c-0.4,0.2-0.5,0.5-0.5,0.9h-1.5c0-0.4,0.1-0.8,0.4-1.2c0.3-0.4,0.7-0.7,1.2-0.9c0.5-0.2,1.1-0.4,1.7-0.4c1,0,1.7,0.2,2.3,0.7
	s0.8,1.2,0.9,2V16c0,0.8,0.1,1.4,0.3,1.9V18H20.1 M17.7,16.9c0.5,0,0.9-0.1,1.3-0.3c0.4-0.2,0.7-0.5,0.9-0.8v-1.6h-1.1
	c-1.8,0-2.7,0.5-2.7,1.4c0,0.4,0.1,0.7,0.5,1C16.8,16.8,17.2,16.9,17.7,16.9 M5.5,13.7h4.1l-2-5.4L5.5,13.7 M6.6,6h1.7l4.7,12h-1.9
	l-1-2.6H4.8l-1,2.6H1.9L6.6,6z M24,0H0v24h24V0z"/>
</svg>
