<?xml version="1.0" encoding="utf-8"?>
<!-- Generator: Adobe Illustrator 25.4.1, SVG Export Plug-In . SVG Version: 6.00 Build 0)  -->
<svg version="1.1" id="Layer_1" xmlns="http://www.w3.org/2000/svg" xmlns:xlink="http://www.w3.org/1999/xlink" x="0px" y="0px"
	 viewBox="0 0 24 24" style="enable-background:new 0 0 24 24;" xml:space="preserve">
<path d="M21.7,9.8l-1-1l-6.5-6.5l0,0c-0.4-0.4-1-0.4-1.4,0l0,0c-0.4,0.4-0.4,1,0,1.4L13.1,4L8.7,8.4c-1.7-0.2-3.4,0-5,0.7
	C3.3,9.2,3.1,9.5,3,9.8c0,0.3,0.1,0.7,0.3,0.9L7.6,15l-4.1,4l-1,2.5l2.5-1l4-4l4.2,4.3c0.2,0.2,0.6,0.3,0.9,0.3
	c0.3-0.1,0.6-0.3,0.7-0.6c0.6-1.6,0.9-3.3,0.7-5l4.5-4.6l0.3,0.3c0.4,0.4,1,0.4,1.4,0C22.1,10.8,22.1,10.2,21.7,9.8z M24,24H0V0h24
	V24z"/>
</svg>
