<?xml version="1.0" encoding="utf-8"?>
<!-- Generator: Adobe Illustrator 25.4.1, SVG Export Plug-In . SVG Version: 6.00 Build 0)  -->
<svg version="1.1" id="Layer_1" xmlns="http://www.w3.org/2000/svg" xmlns:xlink="http://www.w3.org/1999/xlink" x="0px" y="0px"
	 viewBox="0 0 24 24" style="enable-background:new 0 0 24 24;" xml:space="preserve">
<path d="M4,19h16V7H4V19z M13,15h5v2h-5V15z M5.6,9h2.8l3.3,3.3c0.4,0.4,0.4,1,0,1.4L8.4,17H5.6l4-4L5.6,9z M0,0v24h24V0H0z M22,19
	c0,1.1-0.9,2-2,2H4c-1.1,0-2-0.9-2-2V5c0-1.1,0.9-2,2-2h16c1.1,0,2,0.9,2,2V19z"/>
</svg>
