<?xml version="1.0" encoding="UTF-8"?><!DOCTYPE svg PUBLIC "-//W3C//DTD SVG 1.1//EN" "http://www.w3.org/Graphics/SVG/1.1/DTD/svg11.dtd"><svg xmlns="http://www.w3.org/2000/svg" xmlns:xlink="http://www.w3.org/1999/xlink" version="1.1" width="24" height="24" viewBox="0 0 24 24"><path d="M6,11h2v2H6V11 M22,5v14c0,1.105-0.895,2-2,2H4c-1.105,0-2-0.895-2-2V5c0-1.105,0.895-2,2-2h16C21.105,3,22,3.895,22,5 M4,7
	h16V5H4V7 M20,19V9H4v10H20 M16,13v-2h2v2H16 M11,13v-2h2v2H11 M6,15h2v2H6V15 M16,17v-2h2v2H16 M11,17v-2h2v2H11z"/></svg>