<?xml version="1.0" encoding="UTF-8"?><!DOCTYPE svg PUBLIC "-//W3C//DTD SVG 1.1//EN" "http://www.w3.org/Graphics/SVG/1.1/DTD/svg11.dtd"><svg xmlns="http://www.w3.org/2000/svg" xmlns:xlink="http://www.w3.org/1999/xlink" version="1.1" width="24" height="24" viewBox="0 0 24 24"><path d="M21,5v14c0,1.105-0.895,2-2,2H5c-1.105,0-2-0.895-2-2V9.5l2,2V19h14V5h-3.5l-2-2H19C20.1,3,21,3.89,21,5z M5.04,6.15
	l2.09-2.09L5.85,2.8L2.5,6.15L5.85,9.5l1.28-1.26L5.04,6.15 M10.15,2.8L8.88,4.06l2.09,2.09L8.88,8.24l1.27,1.26l3.35-3.35
	L10.15,2.8z"/></svg>