<?xml version="1.0" encoding="UTF-8"?>
<!DOCTYPE svg PUBLIC "-//W3C//DTD SVG 1.1//EN" "http://www.w3.org/Graphics/SVG/1.1/DTD/svg11.dtd">
<svg xmlns="http://www.w3.org/2000/svg" xmlns:xlink="http://www.w3.org/1999/xlink" version="1.1" width="24" height="24" viewBox="0 0 24 24">
    <path d="M10,13c0-3.36-1.35-4.46-2.24-4.82-.46,1.07-1.52,1.82-2.76,1.82-1.657,0-3-1.343-3-3s1.343-3,3-3c1.31,0,2.42.83,2.83,2h8.34c.41-1.17,1.52-2,2.83-2,1.657,0,3,1.343,3,3s-1.343,3-3,3c-1.31,0-2.42-.83-2.83-2h-5.29c.65.88,1.12,2.16,1.12,4,0,2.67,1.34,3.56,2.23,3.85.45-1.08,1.52-1.85,2.77-1.85,1.657,0,3,1.343,3,3s-1.343,3-3,3c-1.34,0-2.5-.88-2.86-2.09-1.43-.26-4.14-1.23-4.14-4.91M6,7c0-.552-.448-1-1-1s-1,.448-1,1,.448,1,1,1,1-.448,1-1M20,7c0-.552-.448-1-1-1s-1,.448-1,1,.448,1,1,1,1-.448,1-1M18,17c0-.552-.448-1-1-1s-1,.448-1,1,.448,1,1,1,1-.448,1-1Z"/>
</svg>
