<?xml version="1.0" encoding="UTF-8"?><!DOCTYPE svg PUBLIC "-//W3C//DTD SVG 1.1//EN" "http://www.w3.org/Graphics/SVG/1.1/DTD/svg11.dtd"><svg xmlns="http://www.w3.org/2000/svg" xmlns:xlink="http://www.w3.org/1999/xlink" version="1.1" width="24" height="24" viewBox="0 0 24 24"><path d="M14,2H6C4.895,2,4,2.895,4,4v16c0,1.105,0.895,2,2,2h12c1.105,0,2-0.895,2-2V8L14,2z M18,20h-6v-2h-2v2H6V4h7v5h5V20z
	 M12,16h-2v-2h2V16z M12,12h-2v-2h2V12z M10,12v2H8v-2H10z M10,16v2H8v-2H10z M10,8v2H8V8H10z"/></svg>
