<?xml version="1.0" encoding="UTF-8"?><!DOCTYPE svg PUBLIC "-//W3C//DTD SVG 1.1//EN" "http://www.w3.org/Graphics/SVG/1.1/DTD/svg11.dtd"><svg xmlns="http://www.w3.org/2000/svg" xmlns:xlink="http://www.w3.org/1999/xlink" version="1.1" width="24" height="24" viewBox="0 0 24 24"><path d="M19.016,1h-8.051c-0.397,0-0.771,0.154-1.054,0.432l-4.449,4.39l0,0C5.179,6.103,5.016,6.492,5.016,6.89V19
	c0,1.103,0.897,2,2,2h12c1.103,0,2-0.897,2-2V3C21.016,1.897,20.119,1,19.016,1z M10.016,2.734V6.5H6.2L10.016,2.734z M20.016,19
	c0,0.551-0.449,1-1,1h-12c-0.552,0-1-0.449-1-1V7.5h4c0.552,0,1-0.448,1-1V2h8c0.551,0,1,0.448,1,1V19z M18.722,22
	c-0.347,0.595-0.985,1-1.722,1H6.246C4.453,23,3,21.547,3,19.754V8.89c0-0.402,1-1.615,1-1.615v12.229C4,20.877,5.123,22,6.496,22
	H18.722z"/></svg>
