<?xml version="1.0" encoding="UTF-8"?><!DOCTYPE svg PUBLIC "-//W3C//DTD SVG 1.1//EN" "http://www.w3.org/Graphics/SVG/1.1/DTD/svg11.dtd"><svg xmlns="http://www.w3.org/2000/svg" xmlns:xlink="http://www.w3.org/1999/xlink" version="1.1" width="24" height="24" viewBox="0 0 24 24"><path d="M11,7h2v10h-2V7z M15,7h7v2h-5v2h4v2h-4v4h-2V7z M2,8.5C2,7.672,2.672,7,3.5,7h4C8.328,7,9,7.672,9,8.5V9H4v6h3v-2H6v-2h1.5
	C8.328,11,9,11.672,9,12.5v3C9,16.328,8.328,17,7.5,17h-4C2.672,17,2,16.328,2,15.5V8.5z"/></svg>