<?xml version="1.0" encoding="UTF-8"?><!DOCTYPE svg PUBLIC "-//W3C//DTD SVG 1.1//EN" "http://www.w3.org/Graphics/SVG/1.1/DTD/svg11.dtd"><svg xmlns="http://www.w3.org/2000/svg" xmlns:xlink="http://www.w3.org/1999/xlink" version="1.1" width="24" height="24" viewBox="0 0 24 24"><path d="M6,2C4.895,2,4,2.895,4,4v16c0,1.105,0.895,2,2,2h12c1.105,0,2-0.895,2-2V8l-6-6H6 M6,4h7v5h5v11H6V4 M16,11.5l-1-1
	c-0.787-0.787-2.214-0.787-3,0l-4,4c-0.787,0.786-0.787,2.214,0,3l1,1c0.393,0.394,0.901,0.65,1.47,0.65s1.137-0.257,1.53-0.65l4-4
	C16.787,13.714,16.787,12.287,16,11.5z M10.5,18l-2-2l1.5-1.5l2,2L10.5,18z M15.5,13L14,14.5l-2-2l1.5-1.5L15.5,13z"/>
</svg>
