<?xml version="1.0" encoding="UTF-8"?><!DOCTYPE svg PUBLIC "-//W3C//DTD SVG 1.1//EN" "http://www.w3.org/Graphics/SVG/1.1/DTD/svg11.dtd"><svg xmlns="http://www.w3.org/2000/svg" xmlns:xlink="http://www.w3.org/1999/xlink" version="1.1" width="24" height="24" viewBox="0 0 24 24"><path d="M18,2h-8.051c-.397,0-.771.154-1.054.432l-4.449,4.39h0c-.283.281-.446.67-.446,1.068v12.11c0,1.103.897,2,2,2h12c1.103,0,2-.897,2-2V4c0-1.103-.897-2-2-2ZM9,3.734v3.766h-3.816l3.816-3.766ZM19,20c0,.551-.449,1-1,1H6c-.552,0-1-.449-1-1v-11.5h4c.552,0,1-.448,1-1V3h8c.551,0,1,.448,1,1v16ZM12.344,17.702h-1.005v-1.005h1.005v1.005ZM12.01,11c1.793.074,2.573,1.883,1.508,3.24-.278.335-.727.557-.948.838-.224.278-.225.613-.225.948h-1.005c0-.56,0-1.032.225-1.367.221-.335.67-.533.948-.754.811-.751.61-1.813-.503-1.9-.267,0-.522.106-.711.294-.189.189-.294.444-.294.711h-1.005c0-.533.212-1.044.589-1.421s.888-.589,1.421-.589Z"/></svg>