<?xml version="1.0" encoding="UTF-8"?><!DOCTYPE svg PUBLIC "-//W3C//DTD SVG 1.1//EN" "http://www.w3.org/Graphics/SVG/1.1/DTD/svg11.dtd"><svg xmlns="http://www.w3.org/2000/svg" xmlns:xlink="http://www.w3.org/1999/xlink" version="1.1" width="24" height="24" viewBox="0 0 24 24"><path d="M10.791,20c-2.717,0-5.158-1.667-6.167-4.167L2.1,9.475c-0.258-0.658,0.358-1.317,1.033-1.1l0.658,0.217
	C4.258,8.75,4.641,9.1,4.825,9.558L6,12.5h0.625V2.708c0-0.575,0.467-1.042,1.042-1.042s1.042,0.467,1.042,1.042V10h0.833V1.042
	C9.541,0.467,10.008,0,10.583,0s1.042,0.467,1.042,1.042V10h0.833V2.292c0-0.575,0.467-1.042,1.042-1.042
	c0.575,0,1.042,0.467,1.042,1.042V10h0.833V4.792c0-0.575,0.467-1.042,1.042-1.042c0.575,0,1.042,0.467,1.042,1.042v8.542
	C17.458,17.017,14.475,20,10.791,20z"/>
</svg>