<?xml version="1.0" encoding="utf-8"?>
<!-- Generator: Adobe Illustrator 25.4.0, SVG Export Plug-In . SVG Version: 6.00 Build 0)  -->
<svg version="1.1" id="Layer_1" xmlns="http://www.w3.org/2000/svg" xmlns:xlink="http://www.w3.org/1999/xlink" x="0px" y="0px"
	 viewBox="0 0 24 24" style="enable-background:new 0 0 24 24;" xml:space="preserve">
<path d="M13,3H6C4.343,3,3,4.343,3,6v7c0,1.657,1.343,3,3,3h7c1.657,0,3-1.343,3-3V6C16,4.343,14.657,3,13,3z M11,8h7
	c1.657,0,3,1.343,3,3v7c0,1.657-1.343,3-3,3h-7c-1.657,0-3-1.343-3-3v-7C8,9.343,9.343,8,11,8z"/>
</svg>
