<?xml version="1.0" encoding="utf-8"?>
<!-- Generator: Adobe Illustrator 25.4.0, SVG Export Plug-In . SVG Version: 6.00 Build 0)  -->
<svg version="1.1" id="Layer_1" xmlns="http://www.w3.org/2000/svg" xmlns:xlink="http://www.w3.org/1999/xlink" x="0px" y="0px"
	 viewBox="0 0 24 24" style="enable-background:new 0 0 24 24;" xml:space="preserve">
<style type="text/css">
	.st0{fill-rule:evenodd;clip-rule:evenodd;}
</style>
<path class="st0" d="M18,9.726c0,3.714-3.582,6.726-8,6.726c-0.417,0-0.827-0.027-1.226-0.079l-2.856,1.594
	c-0.192,0.107-0.429-0.054-0.429-0.292l0-2.394C3.382,14.069,2,12.033,2,9.726C2,6.011,5.582,3,10,3C14.418,3,18,6.011,18,9.726z
	 M10,14.404c0,2.985,2.686,5.404,6,5.404c0.313,0,0.62-0.022,0.919-0.063l2.041,1.22c0.187,0.111,0.424-0.061,0.424-0.309v-1.789
	C20.963,17.895,22,16.258,22,14.404C22,11.42,19.314,9,16,9S10,11.42,10,14.404z"/>
</svg>
