<?xml version="1.0" encoding="UTF-8"?><!DOCTYPE svg PUBLIC "-//W3C//DTD SVG 1.1//EN" "http://www.w3.org/Graphics/SVG/1.1/DTD/svg11.dtd"><svg xmlns="http://www.w3.org/2000/svg" xmlns:xlink="http://www.w3.org/1999/xlink" version="1.1" width="24" height="24" viewBox="0 0 24 24"><path d="M8,3.5H6c-1.105,0-2,0.895-2,2V19c0,1.105,0.895,2,2,2h12c1.105,0,2-0.895,2-2V5.5c0-1.105-0.895-2-2-2h-2V5
	h1.5c0.552,0,1,0.448,1,1v12.5c0,0.552-0.448,1-1,1h-11c-0.552,0-1-0.448-1-1V6c0-0.552,0.448-1,1-1H8V3.5z M11,2
	c-0.276,0-0.5,0.224-0.5,0.5V3H9v2.5h6V3h-1.5V2.5C13.5,2.224,13.276,2,13,2H11z M10.5,16H17v1h-6.5V16z M7.5,15.75H9v1.5H7.5V15.75
	z M10.5,12H17v1h-6.5V12z M7.5,11.75H9v1.5H7.5V11.75z M10.5,8H17v1h-6.5V8z M7.409,9.091l-0.5-0.5l0.5-0.5l0.5,0.5L9,7.5L9.5,8
	L7.909,9.591L7.409,9.091z"/></svg>
