<?xml version="1.0" encoding="utf-8"?>
<!-- Generator: Adobe Illustrator 25.4.0, SVG Export Plug-In . SVG Version: 6.00 Build 0)  -->
<svg version="1.1" id="Layer_1" xmlns="http://www.w3.org/2000/svg" xmlns:xlink="http://www.w3.org/1999/xlink" x="0px" y="0px"
	 viewBox="0 0 24 24" style="enable-background:new 0 0 24 24;" xml:space="preserve">
<path d="M22.15,12.845L16.095,18.9c-0.467,0.467-1.223,0.467-1.69,0L8.35,12.845c-0.467-0.467-0.467-1.223,0-1.69L14.405,5.1
	c0.467-0.467,1.223-0.467,1.69,0l6.055,6.055C22.617,11.622,22.617,12.378,22.15,12.845z M7.905,5.1L1.85,11.155
	c-0.467,0.467-0.467,1.223,0,1.69L7.905,18.9c0.467,0.467,1.223,0.467,1.69,0l6.055-6.055c0.467-0.467,0.467-1.223,0-1.69L9.595,5.1
	C9.128,4.633,8.372,4.633,7.905,5.1z"/>
</svg>
