<?xml version="1.0" encoding="UTF-8"?><!DOCTYPE svg PUBLIC "-//W3C//DTD SVG 1.1//EN" "http://www.w3.org/Graphics/SVG/1.1/DTD/svg11.dtd"><svg xmlns="http://www.w3.org/2000/svg" xmlns:xlink="http://www.w3.org/1999/xlink" version="1.1" width="24" height="24" viewBox="0 0 24 24"><path d="M12,20c-4.418,0-8-3.582-8-8s3.582-8,8-8s8,3.582,8,8S16.418,20,12,20 M12,2C6.477,2,2,6.477,2,12s4.477,10,10,10
	s10-4.477,10-10S17.523,2,12,2 M12,7c-2.761,0-5,2.239-5,5s2.239,5,5,5s5-2.239,5-5S14.761,7,12,7z"/>
</svg>