<?xml version="1.0" encoding="UTF-8"?><!DOCTYPE svg PUBLIC "-//W3C//DTD SVG 1.1//EN" "http://www.w3.org/Graphics/SVG/1.1/DTD/svg11.dtd"><svg xmlns="http://www.w3.org/2000/svg" xmlns:xlink="http://www.w3.org/1999/xlink" version="1.1" width="24" height="24" viewBox="0 0 24 24"><path d="M15.46,15.88l1.42-1.42L19,16.59l2.12-2.13l1.42,1.42L20.41,18l2.13,2.12l-1.42,1.42L19,19.41l-2.12,2.13l-1.42-1.42
	L17.59,18L15.46,15.88 M4,3h14c1.105,0,2,0.895,2,2v7.08c-1.55-0.26-3.08,0.1-4.32,0.92H12v4h1.08c-0.11,0.68-0.11,1.35,0,2H4
	c-1.105,0-2-0.895-2-2V5C2,3.895,2.895,3,4,3 M4,7v4h6V7H4 M12,7v4h6V7H12 M4,13v4h6v-4H4z"/></svg>