<?xml version="1.0" encoding="UTF-8"?><!DOCTYPE svg PUBLIC "-//W3C//DTD SVG 1.1//EN" "http://www.w3.org/Graphics/SVG/1.1/DTD/svg11.dtd"><svg xmlns="http://www.w3.org/2000/svg" xmlns:xlink="http://www.w3.org/1999/xlink" version="1.1" width="24" height="24" viewBox="0 0 24 24"><path d="M22,4v7c0,1.1-0.9,2-2,2H4c-1.1,0-2-0.9-2-2V4c0-1.1,0.9-2,2-2h16C21.1,2,22,2.9,22,4 M14,4h-4v7h4V4z M8,4H4v7h4V4z M20,4
	h-4v7h4V4z M12,17.6l2.6-2.6l1.4,1.4L13.4,19l2.6,2.6L14.6,23L12,20.4L9.4,23L8,21.6l2.6-2.6L8,16.4L9.4,15L12,17.6z"/></svg>