<?xml version="1.0" encoding="UTF-8"?><!DOCTYPE svg PUBLIC "-//W3C//DTD SVG 1.1//EN" "http://www.w3.org/Graphics/SVG/1.1/DTD/svg11.dtd"><svg xmlns="http://www.w3.org/2000/svg" xmlns:xlink="http://www.w3.org/1999/xlink" version="1.1" width="24" height="24" viewBox="0 0 24 24"><path d="M4,3h16c1.105,0,2,0.848,2,1.895v14.211C22,20.152,21.105,21,20,21H4c-1.105,0-2-0.848-2-1.895V4.895C2,3.848,2.895,3,4,3
	 M4,6v3h4V6H4 M10,6v3h10V6H10 M4,11v3h4v-3H4 M4,19h4v-3H4V19 M10,11v3h10v-3H10 M10,19h10v-3H10V19"/></svg>