<?xml version="1.0" encoding="UTF-8"?><!DOCTYPE svg PUBLIC "-//W3C//DTD SVG 1.1//EN" "http://www.w3.org/Graphics/SVG/1.1/DTD/svg11.dtd"><svg xmlns="http://www.w3.org/2000/svg" xmlns:xlink="http://www.w3.org/1999/xlink" version="1.1" width="24" height="24" viewBox="0 0 24 24"><path d="M4,2h7c1.105,0,2,0.895,2,2v16c0,1.105-0.895,2-2,2H4c-1.105,0-2-0.895-2-2V4C2,2.895,2.895,2,4,2 M4,10v4h7v-4H4 M4,16v4h7
	v-4H4 M4,4v4h7V4H4 M17.59,12L15,9.41L16.41,8L19,10.59L21.59,8L23,9.41L20.41,12L23,14.59L21.59,16L19,13.41L16.41,16L15,14.59
	L17.59,12z"/></svg>